<?xml version="1.0" encoding="UTF-8" standalone="no"?>
<!-- Created with Inkscape (http://www.inkscape.org/) -->
<svg
   xmlns:dc="http://purl.org/dc/elements/1.1/"
   xmlns:cc="http://web.resource.org/cc/"
   xmlns:rdf="http://www.w3.org/1999/02/22-rdf-syntax-ns#"
   xmlns:svg="http://www.w3.org/2000/svg"
   xmlns="http://www.w3.org/2000/svg"
   xmlns:sodipodi="http://sodipodi.sourceforge.net/DTD/sodipodi-0.dtd"
   xmlns:inkscape="http://www.inkscape.org/namespaces/inkscape"
   width="711.1651"
   height="390.0195"
   id="svg2"
   sodipodi:version="0.32"
   inkscape:version="0.45.1"
   sodipodi:docbase="/Users/johnolsen/Desktop"
   sodipodi:docname="Boort_Cow_Silhouette_2.svg"
   inkscape:output_extension="org.inkscape.output.svg.inkscape"
   version="1.0">
  <defs
     id="defs4" />
  <sodipodi:namedview
     id="base"
     pagecolor="#ffffff"
     bordercolor="#666666"
     borderopacity="1.0"
     gridtolerance="10000"
     guidetolerance="10"
     objecttolerance="10"
     inkscape:pageopacity="0.0"
     inkscape:pageshadow="2"
     inkscape:zoom="0.40228659"
     inkscape:cx="312.0762"
     inkscape:cy="555.00057"
     inkscape:document-units="px"
     inkscape:current-layer="layer1"
     inkscape:window-width="932"
     inkscape:window-height="581"
     inkscape:window-x="379"
     inkscape:window-y="182" />
  <metadata
     id="metadata7">
    <rdf:RDF>
      <cc:Work
         rdf:about="">
        <dc:format>image/svg+xml</dc:format>
        <dc:type
           rdf:resource="http://purl.org/dc/dcmitype/StillImage" />
      </cc:Work>
    </rdf:RDF>
  </metadata>
  <g
     inkscape:label="Layer 1"
     inkscape:groupmode="layer"
     id="layer1"
     transform="translate(-11.72033,-320.54922)">
    <path
       style="fill:#040404"
       d="M 352.62444,707.90263 C 355.30683,706.52841 359.29748,703.89863 361.49256,702.05867 C 363.68766,700.21872 366.43767,698.7133 367.60371,698.7133 C 368.76975,698.7133 372.85094,695.72498 376.67299,692.07256 C 385.75112,683.39742 387.77739,677.80493 379.46125,663.03235 C 377.85699,660.18257 372.39054,654.39156 371.54229,652.06066 C 369.56933,646.63922 371.94828,639.01729 371.93395,624.20257 C 371.90919,598.56413 374.0612,583.07152 378.53174,576.70442 C 380.29285,574.19617 380.96122,570.09296 380.19026,566.5226 C 377.88908,555.86566 380.06038,555.45332 442.7783,554.63675 C 474.21917,554.22741 505.76659,553.07423 512.8837,552.07413 L 525.82388,550.25576 L 536.80023,561.32472 C 542.83721,567.41263 548.82022,575.15446 550.09579,578.52876 C 552.44331,584.73873 553.71561,585.71129 564.84007,589.7996 C 569.53519,591.52509 570.64318,592.91612 569.42255,595.55267 C 568.53711,597.46522 566.87248,604.64976 565.7234,611.51833 C 563.86028,622.65478 562.37299,625.27065 551.98374,635.68397 C 545.57605,642.10651 539.14328,649.62684 537.68872,652.39582 C 536.23416,655.1648 531.18586,660.65551 526.47028,664.5974 C 518.89372,670.93084 518.06965,672.49466 519.38523,678.0425 C 521.66063,687.63791 529.9015,691.65177 546.82729,691.40865 C 554.676,691.29592 564.46004,689.79366 568.56959,688.07031 C 572.67917,686.34694 578.30725,684.3318 581.07644,683.59219 C 583.84561,682.85261 589.51247,679.48156 593.66945,676.10098 C 600.37679,670.64638 601.19376,668.90959 600.92705,660.67171 C 600.75489,655.35397 596.26378,653.4182 601.72336,643.33271 C 606.50558,634.49848 604.95007,623.19208 607.84828,614.13355 C 612.69226,598.99341 622.85929,579.5411 626.51907,578.41118 C 630.87818,577.06535 636.18758,587.36531 637.37221,599.46569 C 638.77928,613.838 632.83975,643.19938 626.98698,650.80392 C 624.67727,653.80496 622.7875,657.14814 622.7875,658.23321 C 622.7875,659.31829 618.87388,664.39426 614.09057,669.51315 C 609.30727,674.63204 605.39366,680.61871 605.39366,682.81688 C 605.39366,688.17982 614.89745,696.6995 620.87989,696.6995 C 631.30494,696.6995 653.1748,692.13561 655.57249,689.45973 C 656.96683,687.90365 659.3393,686.63048 660.8447,686.63048 C 668.30611,686.63048 683.2237,659.50108 679.57999,652.55811 C 678.81642,651.10318 675.4949,648.32108 678.16814,642.86017 C 683.35663,632.26113 678.88067,613.73258 681.02177,611.74949 C 682.20782,610.65095 659.15025,554.59849 663.34851,515.95708 C 664.67456,503.75188 672.7213,486.8135 675.58644,467.53189 C 680.30987,435.74445 680.11093,401.83075 680.11093,403.56829 C 680.11093,409.66646 686.3082,402.86676 690.47903,424.50108 C 693.77965,441.62157 695.14689,481.77908 695.82199,523.59873 C 695.8567,525.72994 684.30926,610.71548 684.37128,608.9369 C 685.05962,589.19575 687.4749,628.4211 689.73862,628.4211 C 692.00232,628.4211 700.07573,642.95121 700.07573,644.6126 C 700.07573,651.68946 711.68214,640.43136 719.20625,629.15544 C 723.95357,622.04085 724.03688,617.30384 719.86032,591.98171 C 719.40361,589.21274 718.70263,579.69751 718.30262,570.83677 C 717.82996,560.36741 715.77143,550.14299 712.42367,541.63663 C 707.76652,529.80313 715.28926,525.45464 715.46245,496.32604 C 715.56785,478.60457 716.40813,450.18517 717.3297,433.17184 C 719.08533,400.76307 716.52869,372.29998 710.70186,359.38336 C 706.74717,350.61681 687.64147,335.0081 678.82091,333.33769 C 670.30019,331.72408 646.67439,328.96508 618.43904,326.28638 C 607.07868,325.20863 590.70239,323.25385 582.04727,321.94244 C 567.80128,319.78391 565.02103,319.95319 552.69517,323.72963 C 517.66466,334.46238 512.4821,335.00214 445.58775,334.88472 C 407.44247,334.81776 379.09958,333.91082 373.83816,332.58882 C 355.10774,327.88258 303.03593,330.69419 286.86896,337.28469 C 271.76269,343.44282 241.66242,350.30306 217.43908,353.10869 C 189.30892,356.36681 173.79998,357.65497 183.59304,347.6365 C 188.54446,342.5711 179.46292,338.24247 168.44329,338.24247 C 161.43221,338.24247 156.15948,339.72292 150.51255,343.27698 C 140.58569,349.52475 139.84186,349.51673 127.89832,343.03379 C 118.24684,337.79501 117.98972,337.77042 93.010318,339.69612 C 73.67043,341.18708 63.501255,340.99043 49.077652,338.84661 C 38.755343,337.31238 28.115207,338.01846 25.657627,337.13241 C 8.3707639,330.89978 5.1991688,336.62716 27.432191,350.35123 C 32.499018,353.47889 54.904741,358.35779 55.92115,358.35779 C 56.937559,358.35779 63.006705,360.82446 63.740551,361.69897 C 65.412533,363.69149 63.327077,362.29285 60.444526,362.60661 C 52.868335,363.43135 31.982619,361.9071 28.046497,359.44282 C 11.815221,349.28101 6.4070434,351.44928 18.316341,367.30514 C 29.347273,373.59846 41.572493,379.22808 58.574819,381.53925 L 57.795292,396.4138 C 57.052184,410.5937 50.656969,431.89585 43.05584,445.51025 C 38.279339,454.06547 31.810917,479.21284 33.138479,484.06615 C 36.956537,498.0242 54.821185,507.81469 77.168446,508.1962 C 91.113649,508.43429 95.525898,505.94578 104.59268,492.72891 C 111.12543,483.20595 121.49078,477.21224 131.44373,477.20244 C 135.64682,477.19829 142.69404,475.40367 147.10418,473.21436 L 155.12265,469.23384 L 166.64007,474.44802 C 172.97462,477.31582 181.21833,481.14605 184.9594,482.95962 C 188.70044,484.7732 197.68712,493.05361 204.92978,501.36055 C 212.17247,509.66749 222.6728,521.44824 228.2639,527.53999 C 240.93301,541.34356 257.4827,565.61192 257.5022,570.41487 C 257.51027,572.398 259.62254,576.6585 262.19615,579.88266 C 266.74542,585.58187 266.77734,586.04123 263.34449,596.415 C 261.40247,602.28363 259.18436,612.0694 258.41534,618.16116 C 256.84133,630.62975 254.53466,634.74924 242.85483,645.95074 C 227.99597,660.2011 214.03226,676.23395 214.03226,679.04424 C 214.03226,680.56693 215.73986,685.5104 219.87044,689.21852 L 229.0526,695.29688 L 246.4554,694.05391 C 256.02695,693.37026 265.61121,692.02105 267.75379,691.05563 C 269.89634,690.09023 275.53959,687.56688 280.29433,685.44818 C 290.69911,680.81181 296.1416,672.73328 291.17929,669.29115 C 286.90238,666.32441 287.10933,664.56614 292.34276,659.40645 C 296.13649,655.66618 296.82483,651.83771 297.43515,631.08341 C 298.19033,605.40277 300.21578,599.08738 310.57033,590.12778 C 313.6688,587.44673 316.50392,585.63431 316.87055,586.10018 C 327.75445,599.92943 334.27761,621.14112 333.19711,639.18998 C 332.13052,657.00636 327.3491,666.47595 312.52649,680.12813 C 302.43673,689.42119 301.00146,691.74719 301.00146,698.80565 C 301.00146,705.6073 301.87367,707.17534 306.57858,708.83216 C 314.36817,711.57524 346.73104,710.92193 352.62444,707.90263 z "
       id="path2170"
       sodipodi:nodetypes="cssssssssscccsssssssssssssssssssssssssssssssssssssssssssssssssssssssssssssscccssssscccssssssssscccsssssssssssc" />
  </g>
</svg>
